<svg id="Layer_1" data-name="Layer 1" xmlns="http://www.w3.org/2000/svg" xmlns:xlink="http://www.w3.org/1999/xlink" viewBox="0 0 419.66 342.23"><defs><style>.cls-1,.cls-23{fill:none;}.cls-2{fill:url(#linear-gradient);}.cls-3{fill:#6b2067;}.cls-4{fill:#78bf13;}.cls-5{fill:#007a50;}.cls-6{fill:#00b5e2;}.cls-7{fill:#f2a43d;}.cls-8{opacity:0.15;}.cls-9{fill:url(#linear-gradient-2);}.cls-10{fill:#262626;}.cls-11{fill:#ccc;}.cls-12{fill:url(#linear-gradient-3);}.cls-13{fill:url(#linear-gradient-4);}.cls-14{fill:url(#linear-gradient-5);}.cls-15{fill:url(#linear-gradient-6);}.cls-16{fill:url(#linear-gradient-7);}.cls-17{fill:#2e2e2e;}.cls-18{clip-path:url(#clip-path);}.cls-19{fill:#006241;}.cls-20{fill:#005640;}.cls-21{fill:#fff;}.cls-22{fill:#bbbdbf;}.cls-23{stroke:#a7a9ac;stroke-miterlimit:10;stroke-width:0.07px;}.cls-24{fill:url(#linear-gradient-8);}.cls-25{fill:#f3c49a;}.cls-26{fill:#fee8db;}.cls-27{fill:#fdd9c3;}.cls-28{fill:#006d43;}</style><linearGradient id="linear-gradient" x1="-154.7" y1="160.2" x2="242.55" y2="160.2" gradientTransform="matrix(-1, -0.09, -0.09, 1, 272.35, 12.22)" gradientUnits="userSpaceOnUse"><stop offset="0" stop-color="#78bf13"/><stop offset="1" stop-color="#00b5e2"/></linearGradient><linearGradient id="linear-gradient-2" x1="1869.73" y1="1176.78" x2="1869.73" y2="1288.02" gradientTransform="matrix(-0.99, 0.15, 0.15, 0.99, 1787.89, -1353.91)" gradientUnits="userSpaceOnUse"><stop offset="0" stop-color="#3d3d3d"/><stop offset="1" stop-color="#1c1c1c"/></linearGradient><linearGradient id="linear-gradient-3" x1="98.42" y1="234.75" x2="120.03" y2="234.75" gradientTransform="matrix(-0.99, -0.1, -0.1, 0.99, 267.87, 14.59)" gradientUnits="userSpaceOnUse"><stop offset="0" stop-color="#fc9"/><stop offset="1" stop-color="#fc0"/></linearGradient><linearGradient id="linear-gradient-4" x1="73.58" y1="228.39" x2="95.19" y2="228.39" gradientTransform="matrix(-0.99, -0.1, -0.1, 0.99, 267.87, 14.59)" gradientUnits="userSpaceOnUse"><stop offset="0" stop-color="#f66"/><stop offset="1" stop-color="#f33"/></linearGradient><linearGradient id="linear-gradient-5" x1="123.26" y1="241.11" x2="144.86" y2="241.11" gradientTransform="matrix(-0.99, -0.1, -0.1, 0.99, 267.87, 14.59)" gradientUnits="userSpaceOnUse"><stop offset="0" stop-color="#cf6"/><stop offset="1" stop-color="#99cc0d"/></linearGradient><linearGradient id="linear-gradient-6" x1="1869.72" y1="1192.21" x2="1869.72" y2="1244.81" gradientTransform="matrix(-0.99, 0.15, 0.15, 0.99, 1787.89, -1353.91)" gradientUnits="userSpaceOnUse"><stop offset="0" stop-color="#eefdf2"/><stop offset="1" stop-color="#d1f9db"/></linearGradient><linearGradient id="linear-gradient-7" x1="147.3" y1="84.71" x2="155.76" y2="55.49" gradientTransform="matrix(-0.99, -0.1, -0.1, 0.99, 267.87, 14.59)" gradientUnits="userSpaceOnUse"><stop offset="0" stop-color="#fff"/><stop offset="1" stop-color="#d6d6d6"/></linearGradient><clipPath id="clip-path"><rect class="cls-1" x="217.85" y="63.12" width="80.58" height="128.27" transform="translate(25.07 296.09) rotate(-62.16)"/></clipPath><linearGradient id="linear-gradient-8" x1="296.08" y1="194.28" x2="363.17" y2="194.28" gradientUnits="userSpaceOnUse"><stop offset="0" stop-color="#fdd9c3"/><stop offset="0.16" stop-color="#fdd9c3"/></linearGradient></defs><path id="background" class="cls-2" d="M32.61,260.67c21.11,22.64,53.47,21.79,81.14,29.55,14.88,3.83,27.8,10.37,40.12,17.82l.92.56c.67.41,1.34.82,2,1.24.1.07.22.13.32.19,94,57.2,134.26,11.36,141.64,1.17.39-.61.79-1.21,1.21-1.8a.23.23,0,0,0,.05-.07v0h0c18.19-25.42,58.42-26.61,84-51.86,35.47-34.11,28.68-58,6.55-97.49-23.27-40.91-32.31-96-59.79-133.4-26.43-34.76-70.7-17-104.37-2-37.75,17.12-77.88,36.1-117.94,50.41C55.09,107.37-29.7,195.46,32.61,260.67Z"/><g id="dots"><path class="cls-3" d="M156,30.59a8.88,8.88,0,1,0,9.67-8A8.87,8.87,0,0,0,156,30.59Z"/><path class="cls-4" d="M96.56,311.09a10.72,10.72,0,1,0,11.67-9.68A10.72,10.72,0,0,0,96.56,311.09Z"/><path class="cls-5" d="M315,320a7.13,7.13,0,1,0,7.76-6.43A7.12,7.12,0,0,0,315,320Z"/><path class="cls-6" d="M138.23,315a5.13,5.13,0,1,0,5.58-4.63A5.13,5.13,0,0,0,138.23,315Z"/><path class="cls-7" d="M380.14,121.26a5.13,5.13,0,1,0,5.59-4.63A5.13,5.13,0,0,0,380.14,121.26Z"/></g><g id="shadow"><path class="cls-8" d="M176.55,236.66,96.76,258.24a8.51,8.51,0,0,1-10.44-6L49.49,125c18.52-21.15,40.62-38.9,59-50.06,11-3.91,21.9-8.16,32.81-12.64l20.29,80.59,21,83.35A8.51,8.51,0,0,1,176.55,236.66Z"/><path class="cls-8" d="M359.48,265.72q-.71-2.91-1.4-5.81l-.69-2.88c-1.81-7.65-3.49-15-4.86-21.59-.16-.82-.33-1.63-.49-2.42-.33-1.58-.63-3.11-.91-4.56-.13-.73-.26-1.43-.39-2.12h0c-.13-.69-.24-1.36-.36-2h0c-.11-.65-.21-1.28-.31-1.89-.06-.32-.1-.62-.15-.92-.09-.59-.18-1.17-.25-1.72l-.12-.82c-.06-.53-.13-1-.18-1.52-.13-1.11-.24-2.25-.34-3.42-.48-5.43-.7-11.38-.83-17.52,0-1.62-.06-3.25-.09-4.89s-.05-3.29-.06-4.94c0-2.17-.05-4.35-.09-6.51-.14-11.31-.42-22.36-1.76-31.32-.19-1.24-.39-2.45-.62-3.61h0c-.09-.48-.2-1-.3-1.42-.31-1.41-.66-2.74-1-4a6.22,6.22,0,0,0-.48-1.06c-.07-.13-.15-.26-.24-.4a2.26,2.26,0,0,0-.16-.26c-.1-.17-.22-.34-.35-.53s-.12-.18-.2-.27-.18-.25-.27-.39-.4-.52-.63-.79a113.19,113.19,0,0,0-10.37-10.64l-1.24-1.14c-.42-.39-.83-.77-1.26-1.15L327.76,122c-.86-.78-1.73-1.55-2.61-2.32-.43-.39-.87-.77-1.31-1.15l-.65-.58-.66-.57-.65-.57-1.31-1.12c-.75-.66-1.5-1.29-2.24-1.92l-2.19-1.86-3-2.5-1.66-1.38-.31-.26a.93.93,0,0,1-.15-.13l-.15-.11h0l-.59-.49c-.39-.33-.77-.62-1.13-.94l-.6-9a8.29,8.29,0,0,0-4.87-6.44,14.48,14.48,0,0,0-6.19-1.36h-.83c-2.66.1-5.35,1.09-7.46,4.92-.16.29-.32.6-.47.93a22.61,22.61,0,0,0-1.1,2.81c0,.17-.11.35-.16.53-.18.58-.34,1.16-.5,1.74-.2.79-.4,1.56-.56,2.34,0,.14-.06.29-.09.43h0L212.92,66.83a5.68,5.68,0,0,0-2.71-.59,5.78,5.78,0,0,0-5.05,3.23L175,130.79a5.79,5.79,0,0,0,2.64,7.76l62.45,30.75c-2.31,3.07-4.49,6.32-5.9,8.5-1,1.54-1.83,2.26-1.37,3.12.07.13.15.28.23.45l.3.53a11.87,11.87,0,0,0,1.63,2.3.68.68,0,0,0,.12.13c.11.12.21.23.33.34l.24.22a3.56,3.56,0,0,0,.31.26l.24.19c.09.06.17.13.26.18a5.89,5.89,0,0,0,.64.37,1.89,1.89,0,0,0,.33.15l.33.14.27.09c.16,0,.34.09.53.13a3.71,3.71,0,0,0,.69.09h0a3.84,3.84,0,0,0,.76,0,8,8,0,0,0,3.28-1,13.61,13.61,0,0,0,1.26-.76,19,19,0,0,0,2-1.57,30.13,30.13,0,0,0,2.21-2.19c.52-.55,1-1.16,1.58-1.83a33.41,33.41,0,0,0,2.57-3.49l4.08,2c-2.37,5.66-4.68,17.84-2.92,21l.05.07.06.09a.21.21,0,0,0,0,.06h0s0,0,0,0,0,0,0,0l.05,0,.06.07s0,0,0,.06l.08.06.21.22.34.26.21.15a1.81,1.81,0,0,0,.33.2l0,0,.68.36a5.56,5.56,0,0,0,.8.32l.42.13a5.88,5.88,0,0,0,.92.15,2.83,2.83,0,0,0,.41,0,5.44,5.44,0,0,0,2.73-.61,6.05,6.05,0,0,0,.55-.32,6.19,6.19,0,0,0,1.09-.88c.18-.17.36-.37.54-.56,1.41-1.63,2.69-4.24,3.66-8.28,0,0,.61-2.76,1.68-6.73l4.27,2.11a32.71,32.71,0,0,0-.37,8h0c-1.73,4.6-2,19.29.41,22.83a1.81,1.81,0,0,0,.19.25,1.23,1.23,0,0,0,.2.19l.24.2a6.1,6.1,0,0,0,.75.42c3,1.42,9.79,1.93,10.35-11.47a177.53,177.53,0,0,1,1.58-18.73l-.08.09-.07.07a5.11,5.11,0,0,0,.6-.77h0c.09,1.6.2,3.21.34,4.82.09,1,.19,2,.3,3.06s.23,2.11.37,3.17c.46,3.46,1.06,6.92,1.83,10.33,2.46,10.94,6.72,21.31,13.89,29.45,0,0,.09.66.27,1.85,0,.1,0,.21,0,.31s.06.41.09.64.08.59.13.91c.08.54.15,1.13.25,1.77s.17,1.33.28,2.07v.05c.06.39.11.79.17,1.2s.11.84.17,1.27v0c0,.19.05.38.08.58,0,.4.1.81.16,1.22l.09.63c0,.28.07.56.1.84a5,5,0,0,1,.07.54c.05.31.09.63.14,1l.06.56c.05.35.09.71.14,1.06s.09.73.14,1.09.1.74.14,1.12l.15,1.13c.12,1,.24,1.94.36,2.93.1.79.2,1.58.3,2.39.25,2.08,2.57,32.82,2.81,36.09,13.59-11.18,32.9-21.93,49.62-32.36Z"/></g><g id="pos_terminal" data-name="pos terminal"><path class="cls-9" d="M66.14,74.3l87.68-13.11a8.51,8.51,0,0,1,9.68,7.16l11.08,84.16,11.22,85.22a8.52,8.52,0,0,1-7.17,9.67L96.89,259.62a8.51,8.51,0,0,1-9.68-7.15L62.61,105.7,59,84A8.52,8.52,0,0,1,66.14,74.3Z"/><rect class="cls-10" x="68.93" y="86.81" width="88.16" height="2.32" transform="translate(-11.77 17.68) rotate(-8.51)"/><g id="buttons"><path class="cls-11" d="M115.93,176.28a2.3,2.3,0,0,0,2.61,1.93l15.57-2.33a2.29,2.29,0,0,0,1.93-2.61l-1.06-7a2.28,2.28,0,0,0-2.6-1.93l-15.57,2.32a2.3,2.3,0,0,0-1.93,2.62Z"/><path class="cls-11" d="M141.29,172.49a2.3,2.3,0,0,0,2.61,1.93l15.57-2.33a2.29,2.29,0,0,0,1.92-2.61l-1-7a2.3,2.3,0,0,0-2.61-1.94l-15.56,2.33a2.3,2.3,0,0,0-1.93,2.61Z"/><path class="cls-11" d="M90.58,180.07A2.29,2.29,0,0,0,93.19,182l15.56-2.33a2.29,2.29,0,0,0,1.93-2.61l-1.05-7a2.3,2.3,0,0,0-2.61-1.93l-15.57,2.33A2.29,2.29,0,0,0,89.53,173Z"/><path class="cls-11" d="M118.39,192.7a2.31,2.31,0,0,0,2.61,1.94l15.56-2.33a2.3,2.3,0,0,0,1.93-2.62l-1.05-7a2.29,2.29,0,0,0-2.61-1.93l-15.56,2.33a2.29,2.29,0,0,0-1.93,2.61Z"/><path class="cls-11" d="M143.75,188.91a2.29,2.29,0,0,0,2.61,1.93l15.56-2.32a2.3,2.3,0,0,0,1.93-2.62l-1-7a2.3,2.3,0,0,0-2.61-1.93l-15.56,2.33a2.29,2.29,0,0,0-1.94,2.61Z"/><path class="cls-11" d="M93,196.49a2.29,2.29,0,0,0,2.6,1.94l15.57-2.33a2.3,2.3,0,0,0,1.93-2.61l-1.06-7.05a2.29,2.29,0,0,0-2.61-1.93l-15.56,2.33A2.3,2.3,0,0,0,92,189.45Z"/><path class="cls-11" d="M120.85,209.13a2.3,2.3,0,0,0,2.61,1.93L139,208.73a2.29,2.29,0,0,0,1.93-2.61l-1-7a2.29,2.29,0,0,0-2.61-1.93l-15.57,2.33a2.29,2.29,0,0,0-1.93,2.6Z"/><path class="cls-11" d="M146.2,205.33a2.3,2.3,0,0,0,2.62,1.93l15.56-2.32a2.3,2.3,0,0,0,1.93-2.61l-1.06-7.05a2.3,2.3,0,0,0-2.61-1.93l-15.56,2.33a2.3,2.3,0,0,0-1.93,2.61Z"/><path class="cls-11" d="M95.49,212.92a2.31,2.31,0,0,0,2.61,1.93l15.56-2.33a2.28,2.28,0,0,0,1.93-2.61l-1-7a2.29,2.29,0,0,0-2.61-1.93l-15.56,2.32a2.3,2.3,0,0,0-1.93,2.62Z"/><path class="cls-11" d="M123.3,225.55a2.29,2.29,0,0,0,2.61,1.93l15.57-2.32a2.3,2.3,0,0,0,1.93-2.62l-1.06-7a2.29,2.29,0,0,0-2.61-1.93l-15.56,2.33a2.29,2.29,0,0,0-1.93,2.61Z"/><path class="cls-11" d="M148.66,221.76a2.29,2.29,0,0,0,2.61,1.93l15.56-2.33a2.29,2.29,0,0,0,1.93-2.61l-1-7a2.29,2.29,0,0,0-2.61-1.93l-15.56,2.32a2.29,2.29,0,0,0-1.93,2.61Z"/><path class="cls-11" d="M98,229.34a2.28,2.28,0,0,0,2.6,1.93L116.12,229a2.3,2.3,0,0,0,1.93-2.62l-1-7a2.3,2.3,0,0,0-2.61-1.93l-15.57,2.33a2.3,2.3,0,0,0-1.93,2.61Z"/><path class="cls-12" d="M125.76,242a2.29,2.29,0,0,0,2.61,1.93l15.56-2.32a2.29,2.29,0,0,0,1.93-2.61l-1.05-7.05A2.31,2.31,0,0,0,142.2,230l-15.56,2.33a2.31,2.31,0,0,0-1.94,2.61Z"/><path class="cls-13" d="M151.12,238.18a2.28,2.28,0,0,0,2.61,1.93l15.56-2.33a2.28,2.28,0,0,0,1.93-2.6l-1.06-7.05a2.28,2.28,0,0,0-2.6-1.93L152,228.53a2.29,2.29,0,0,0-1.94,2.61Z"/><path class="cls-14" d="M100.4,245.76A2.31,2.31,0,0,0,103,247.7l15.57-2.33a2.31,2.31,0,0,0,1.93-2.61l-1.06-7a2.3,2.3,0,0,0-2.61-1.94l-15.56,2.33a2.3,2.3,0,0,0-1.93,2.61Z"/></g><path id="screen" class="cls-15" d="M81.49,160a2.4,2.4,0,0,0,2.71,2l78-11.67a2.37,2.37,0,0,0,2-2.7l-7.52-50.29a2.37,2.37,0,0,0-2.7-2L76,107a2.37,2.37,0,0,0-2,2.7Z"/><path id="receipt_paper" data-name="receipt paper" class="cls-16" d="M65.31,67.05l3.93,26.29,87.19-13L152.5,54c-1.68.25-2.15-2.87-3.82-2.62s-1.21,3.37-2.89,3.62-2.14-2.87-3.82-2.62-1.21,3.37-2.89,3.62-2.14-2.87-3.81-2.61-1.21,3.37-2.88,3.61-2.15-2.86-3.83-2.61-1.21,3.37-2.88,3.62-2.14-2.87-3.82-2.62S120.65,58.77,119,59s-2.14-2.87-3.82-2.62-1.21,3.38-2.89,3.62-2.14-2.86-3.82-2.61-1.21,3.37-2.89,3.62-2.13-2.87-3.81-2.62-1.21,3.37-2.89,3.62S96.71,59.16,95,59.41,93.82,62.78,92.15,63,90,60.16,88.32,60.41s-1.2,3.38-2.88,3.63-2.15-2.87-3.82-2.62S80.41,64.79,78.73,65s-2.14-2.87-3.83-2.62S73.69,65.79,72,66s-2.15-2.86-3.83-2.61S67,66.8,65.31,67.05Z"/><g id="sign"><path class="cls-17" d="M112.38,130a13.38,13.38,0,0,0-3.78-7.5l-2.16,2.14a10.4,10.4,0,0,1,1.83,12.23l2.69,1.42A13.46,13.46,0,0,0,112.38,130Z"/><path class="cls-17" d="M118.91,129.07a19.38,19.38,0,0,0-5.48-10.89l-2.15,2.13a16.52,16.52,0,0,1,2.89,19.35l2.69,1.42A19.49,19.49,0,0,0,118.91,129.07Z"/><path class="cls-17" d="M125.44,128.09a25.55,25.55,0,0,0-7.18-14.28L116.1,116a22.56,22.56,0,0,1,4,26.47l2.69,1.42A25.44,25.44,0,0,0,125.44,128.09Z"/><path class="cls-17" d="M132,127.11a31.5,31.5,0,0,0-8.88-17.66l-2.16,2.14a28.66,28.66,0,0,1,5,33.6l2.69,1.41A31.54,31.54,0,0,0,132,127.11Z"/></g></g><g id="card"><g id="green_debit" data-name="green debit"><g class="cls-18"><g class="cls-18"><path class="cls-19" d="M298.08,189l25.3-47.9,8.23-15.59a4.4,4.4,0,0,0-1.83-5.93L224.12,63.73a4.4,4.4,0,0,0-5.93,1.83L210,81.16l-25.29,47.89a4.4,4.4,0,0,0,1.83,5.93l105.66,55.8a4.4,4.4,0,0,0,5.93-1.83"/><polygon class="cls-20" points="236.65 107.06 251.2 123.7 251.15 123.78 229.27 121.03 225.57 128.03 259.3 131.6 262.13 126.24 240.35 100.05 236.65 107.06"/><path class="cls-20" d="M239.09,117.28a3.87,3.87,0,1,0-5.22,1.61,3.87,3.87,0,0,0,5.22-1.61"/><path class="cls-20" d="M223,108.75A24.33,24.33,0,1,0,255.82,98.6,24.33,24.33,0,0,0,223,108.75m40.72,21.51a21.72,21.72,0,1,1-9.06-29.36,21.71,21.71,0,0,1,9.06,29.36"/><path class="cls-21" d="M285.59,180.85a.56.56,0,0,1-.63-.47.55.55,0,0,1,.46-.63,3.17,3.17,0,0,1,1,0,3.38,3.38,0,0,1,1,.34,3.08,3.08,0,0,1,.84.63,3,3,0,0,1,.57.84.55.55,0,1,1-1,.47,2.57,2.57,0,0,0-.38-.55,2.35,2.35,0,0,0-.56-.42,2.23,2.23,0,0,0-.66-.22,1.89,1.89,0,0,0-.67,0m0-2.16a4.38,4.38,0,0,1,2.35.51,4.33,4.33,0,0,1,1.74,1.65.55.55,0,1,0,1-.56,5.52,5.52,0,0,0-5.11-2.7.56.56,0,0,0-.51.59.55.55,0,0,0,.58.51m0-2.26a6.69,6.69,0,0,1,3.4.77,6.6,6.6,0,0,1,2.54,2.37.55.55,0,1,0,.94-.58,7.76,7.76,0,0,0-6.93-3.66.55.55,0,0,0,.05,1.1m0-2.26a8.95,8.95,0,0,1,7.81,4.12.54.54,0,0,0,.76.17.55.55,0,0,0,.17-.76,10,10,0,0,0-8.77-4.63.55.55,0,0,0,0,1.1"/><polygon class="cls-21" points="226.92 148.48 227.35 147.68 230.88 148.18 228.49 145.51 228.89 144.75 231.98 148.41 231.66 149.01 226.92 148.48"/><polygon class="cls-21" points="231.6 139.62 232.98 137.02 233.61 137.35 232.61 139.25 233.57 139.76 234.52 137.96 235.15 138.29 234.2 140.1 235.27 140.66 236.32 138.66 236.95 138.99 235.53 141.69 231.6 139.62"/><path class="cls-21" d="M235.88,131.52l.72-1.37c.4-.75,1-1.33,1.9-.87a1.14,1.14,0,0,1,.58,1.48l2.29-.13-.45.84-2.14,0-.27.51,1.67.88-.37.7Zm2.32-.37c.21-.39.42-.87-.09-1.14s-.75.16-.94.52l-.32.61,1.06.56Z"/><rect class="cls-21" x="241.96" y="121.8" width="0.79" height="4.44" transform="translate(19.52 280.41) rotate(-62.16)"/><path class="cls-21" d="M243.52,117.06l.82-1.55a2.11,2.11,0,0,1,3-1,2.25,2.25,0,0,1,.87,3.12l-.78,1.46Zm3.94.52c.46-.88.46-1.79-.49-2.3a1.44,1.44,0,0,0-2.11.77l-.34.64,2.66,1.41Z"/><rect class="cls-21" x="249.97" y="106.62" width="0.79" height="4.44" transform="translate(37.21 279.41) rotate(-62.16)"/><path class="cls-21" d="M252.2,100.61l.32-.6,4.82.38-.42.8-1.09-.11-.9,1.7.71.83-.41.78Zm2.9.4-1.92-.24,1.28,1.46Z"/><polygon class="cls-21" points="256.14 93.16 256.63 92.24 260.55 91.88 260.56 91.87 260.56 91.88 260.55 91.87 257.63 90.33 258 89.63 261.93 91.7 261.46 92.59 257.43 92.94 257.42 92.95 260.43 94.54 260.06 95.24 256.14 93.16"/><path class="cls-21" d="M311.59,134.77l6.08,7.39-1.13,2.13-7.07-1.68a1,1,0,0,0-.94.12,10,10,0,0,0-1.72,1.64l-.2-.17,1.82-3.43a1.05,1.05,0,0,1,1.28-.51l5,1.53-4.2-4.9Zm9.67-5.58c-2.05-1.1-3.67,1.7-4.58,1.19-.28-.15-.44-.58-.21-1.2a4.35,4.35,0,0,1,1.4-1.8l-1.46-1.23a6,6,0,0,0-1.35,1.7c-1.05,2-.73,4,.78,4.77,1.12.61,2.28-.07,3.06-.64s1.18-.72,1.52-.54c.52.29.42,1,.13,1.61a4.77,4.77,0,0,1-1.59,1.82l1.51,1.26a6.59,6.59,0,0,0,1.6-2c1.12-2.12.81-4.06-.81-4.92m5.33-3.92,1-1.87-8.66-2.49-.91,1.72a1,1,0,0,0,.12,1.16l5.63,6.85,1.12-2.12-.94-1,1.36-2.59Zm-3.95.79-2.37-2.61,3.25.93Zm-9.52,5.83,6.91,5.78-1.06,2-6.92-5.79Z"/><path class="cls-21" d="M306.83,127.41a1.91,1.91,0,0,1,3.39,1.77l-.67,1.27-3.38-1.78Zm3,1.68a1.49,1.49,0,1,0-2.63-1.39l-.41.77,2.64,1.39Z"/><polygon class="cls-21" points="309.19 122.94 309.56 123.14 308.65 124.86 309.71 125.42 310.56 123.81 310.94 124.01 310.09 125.62 311.29 126.25 312.25 124.44 312.62 124.64 311.45 126.85 308.07 125.07 309.19 122.94"/><path class="cls-21" d="M310.11,121.2c.36-.68.89-1,1.42-.68a.87.87,0,0,1,.46,1h0a.94.94,0,0,1,1.24-.33c.64.34.67,1,.26,1.81l-.54,1-3.38-1.79Zm1.4.82c.27-.51.23-.84-.15-1s-.64,0-.88.43l-.33.62,1.06.56Zm1.64.7c.23-.43.23-.9-.16-1.1s-.78,0-1,.47l-.37.7,1.21.63Z"/><rect class="cls-21" x="312.73" y="118" width="0.45" height="3.82" transform="translate(60.77 340.65) rotate(-62.16)"/><polygon class="cls-21" points="313.01 115.71 313.38 115.91 312.79 117.03 315.8 118.62 315.59 119.02 312.58 117.43 311.99 118.55 311.62 118.35 313.01 115.71"/><polygon class="cls-22" points="283.2 149.59 283.52 149.16 283.88 148.74 284.33 148.42 284.83 148.16 285.34 147.98 285.94 147.9 286.54 147.89 287.1 147.98 287.7 148.14 288.26 148.4 297.18 153.1 297.71 153.41 298.18 153.83 298.61 154.25 298.9 154.73 299.17 155.27 299.35 155.81 299.39 156.35 299.37 156.91 299.27 157.46 299.05 157.95 295.88 163.97 295.6 164.42 295.22 164.79 294.77 165.12 294.3 165.39 293.76 165.55 293.16 165.63 292.59 165.66 291.99 165.58 291.39 165.39 290.84 165.14 281.92 160.44 281.39 160.12 280.9 159.74 280.53 159.3 280.19 158.8 279.93 158.26 279.78 157.74 279.71 157.18 279.73 156.62 279.85 156.12 280.03 155.61 283.2 149.59"/><polygon class="cls-23" points="283.2 149.59 283.52 149.16 283.88 148.74 284.33 148.42 284.83 148.16 285.34 147.98 285.94 147.9 286.54 147.89 287.1 147.98 287.7 148.14 288.26 148.4 297.18 153.1 297.71 153.41 298.18 153.83 298.61 154.25 298.9 154.73 299.17 155.27 299.35 155.81 299.39 156.35 299.37 156.91 299.27 157.46 299.05 157.95 295.88 163.97 295.6 164.42 295.22 164.79 294.77 165.12 294.3 165.39 293.76 165.55 293.16 165.63 292.59 165.66 291.99 165.58 291.39 165.39 290.84 165.14 281.92 160.44 281.39 160.12 280.9 159.74 280.53 159.3 280.19 158.8 279.93 158.26 279.78 157.74 279.71 157.18 279.73 156.62 279.85 156.12 280.03 155.61 283.2 149.59"/><rect class="cls-22" x="288.76" y="163.21" width="1.92" height="0.01" transform="translate(10.1 343.19) rotate(-62.16)"/><rect class="cls-23" x="288.76" y="163.21" width="1.92" height="0.01" transform="translate(10.1 343.19) rotate(-62.16)"/><polygon class="cls-22" points="290.18 162.37 290.56 162.77 290.55 162.78 290.17 162.37 290.18 162.37"/><polygon class="cls-23" points="290.18 162.37 290.56 162.77 290.55 162.78 290.17 162.37 290.18 162.37"/><rect class="cls-22" x="292.59" y="161.54" width="0.01" height="4.61" transform="translate(11.2 346.26) rotate(-62.2)"/><rect class="cls-23" x="292.59" y="161.54" width="0.01" height="4.61" transform="translate(11.2 346.26) rotate(-62.2)"/><polygon class="cls-22" points="294.63 164.92 294.64 164.93 294.19 165.18 293.13 165.43 292.58 165.42 292.03 165.33 291.46 165.19 290.93 164.95 290.94 164.94 291.46 165.18 292.03 165.32 292.58 165.41 293.13 165.41 294.19 165.16 294.63 164.92"/><polygon class="cls-23" points="294.63 164.92 294.64 164.93 294.19 165.18 293.13 165.43 292.58 165.42 292.03 165.33 291.46 165.19 290.93 164.95 290.94 164.94 291.46 165.18 292.03 165.32 292.58 165.41 293.13 165.41 294.19 165.16 294.63 164.92"/><rect class="cls-22" x="290.22" y="163.78" width="0.01" height="1.59" transform="translate(9.29 344.55) rotate(-62.2)"/><rect class="cls-23" x="290.22" y="163.78" width="0.01" height="1.59" transform="translate(9.29 344.55) rotate(-62.2)"/><polygon class="cls-22" points="295.62 163.83 295.63 163.84 295.4 164.2 295.14 164.51 294.8 164.81 294.79 164.8 295.13 164.5 295.39 164.19 295.62 163.83"/><polygon class="cls-23" points="295.62 163.83 295.63 163.84 295.4 164.2 295.14 164.51 294.8 164.81 294.79 164.8 295.13 164.5 295.39 164.19 295.62 163.83"/><rect class="cls-22" x="292.73" y="161.39" width="0.01" height="4.65" transform="translate(11.41 346.35) rotate(-62.21)"/><rect class="cls-23" x="292.73" y="161.39" width="0.01" height="4.65" transform="translate(11.41 346.35) rotate(-62.21)"/><polygon class="cls-22" points="290.26 162.21 290.68 162.63 290.67 162.64 290.25 162.22 290.26 162.21"/><polygon class="cls-23" points="290.26 162.21 290.68 162.63 290.67 162.64 290.25 162.22 290.26 162.21"/><rect class="cls-22" x="289.54" y="161.02" width="2.67" height="0.01" transform="translate(12.65 343.05) rotate(-62.16)"/><rect class="cls-23" x="289.54" y="161.02" width="2.67" height="0.01" transform="translate(12.65 343.05) rotate(-62.16)"/><rect class="cls-22" x="293.93" y="158.38" width="0.01" height="5.51" transform="translate(14.33 346.02) rotate(-62.21)"/><rect class="cls-23" x="293.93" y="158.38" width="0.01" height="5.51" transform="translate(14.33 346.02) rotate(-62.21)"/><rect class="cls-22" x="295.33" y="163.04" width="1.43" height="0.01" transform="matrix(0.47, -0.88, 0.88, 0.47, 13.62, 348.69)"/><rect class="cls-23" x="295.33" y="163.04" width="1.43" height="0.01" transform="matrix(0.47, -0.88, 0.88, 0.47, 13.62, 348.69)"/><rect class="cls-22" x="294.01" y="158.22" width="0.01" height="5.51" transform="translate(14.52 346.01) rotate(-62.21)"/><rect class="cls-23" x="294.01" y="158.22" width="0.01" height="5.51" transform="translate(14.52 346.01) rotate(-62.21)"/><rect class="cls-22" x="290.86" y="158.49" width="2.71" height="0.01" transform="translate(15.61 342.88) rotate(-62.16)"/><rect class="cls-23" x="290.86" y="158.49" width="2.71" height="0.01" transform="translate(15.61 342.88) rotate(-62.16)"/><rect class="cls-22" x="295.28" y="155.82" width="0.01" height="5.51" transform="translate(17.31 345.85) rotate(-62.21)"/><rect class="cls-23" x="295.28" y="155.82" width="0.01" height="5.51" transform="translate(17.31 345.85) rotate(-62.21)"/><rect class="cls-22" x="295.87" y="160.98" width="2.53" height="0.01" transform="matrix(0.47, -0.88, 0.88, 0.47, 16.02, 348.55)"/><rect class="cls-23" x="295.87" y="160.98" width="2.53" height="0.01" transform="matrix(0.47, -0.88, 0.88, 0.47, 16.02, 348.55)"/><rect class="cls-22" x="297.43" y="159.09" width="1.39" height="0.01" transform="matrix(0.47, -0.88, 0.88, 0.47, 18.23, 348.43)"/><rect class="cls-23" x="297.43" y="159.09" width="1.39" height="0.01" transform="matrix(0.47, -0.88, 0.88, 0.47, 18.23, 348.43)"/><rect class="cls-22" x="295.36" y="155.67" width="0.01" height="5.51" transform="translate(17.49 345.84) rotate(-62.21)"/><rect class="cls-23" x="295.36" y="155.67" width="0.01" height="5.51" transform="translate(17.49 345.84) rotate(-62.21)"/><rect class="cls-22" x="292.23" y="155.97" width="2.64" height="0.01" transform="matrix(0.47, -0.88, 0.88, 0.47, 18.54, 342.71)"/><rect class="cls-23" x="292.23" y="155.97" width="2.64" height="0.01" transform="matrix(0.47, -0.88, 0.88, 0.47, 18.54, 342.71)"/><polygon class="cls-22" points="294.75 154.91 294.75 154.92 294.16 154.81 294.16 154.8 294.75 154.91"/><polygon class="cls-23" points="294.75 154.91 294.75 154.92 294.16 154.81 294.16 154.8 294.75 154.91"/><rect class="cls-22" x="296.89" y="153.62" width="0.01" height="4.86" transform="translate(20.41 345.92) rotate(-62.21)"/><rect class="cls-23" x="296.89" y="153.62" width="0.01" height="4.86" transform="translate(20.41 345.92) rotate(-62.21)"/><polygon class="cls-22" points="299.05 157.18 298.81 157.82 298.8 157.81 299.04 157.18 299.05 157.18"/><polygon class="cls-23" points="299.05 157.18 298.81 157.82 298.8 157.81 299.04 157.18 299.05 157.18"/><rect class="cls-22" x="297.23" y="158.76" width="2.14" height="0.01" transform="matrix(0.47, -0.88, 0.88, 0.47, 18.61, 348.4)"/><rect class="cls-23" x="297.23" y="158.76" width="2.14" height="0.01" transform="matrix(0.47, -0.88, 0.88, 0.47, 18.61, 348.4)"/><rect class="cls-22" x="296.35" y="152.15" width="0.01" height="1.59" transform="translate(22.85 343.77) rotate(-62.2)"/><rect class="cls-23" x="296.35" y="152.15" width="0.01" height="1.59" transform="translate(22.85 343.77) rotate(-62.2)"/><polygon class="cls-22" points="297.07 153.31 297.59 153.63 298.05 153.99 298.42 154.43 298.72 154.91 298.95 155.44 299.1 155.95 299.13 156.5 299.1 157 299.08 157 299.12 156.5 299.08 155.96 298.94 155.44 298.71 154.92 298.41 154.44 298.04 154 297.59 153.64 297.06 153.32 297.07 153.31"/><polygon class="cls-23" points="297.07 153.31 297.59 153.63 298.05 153.99 298.42 154.43 298.72 154.91 298.95 155.44 299.1 155.95 299.13 156.5 299.1 157 299.08 157 299.12 156.5 299.08 155.96 298.94 155.44 298.71 154.92 298.41 154.44 298.04 154 297.59 153.64 297.06 153.32 297.07 153.31"/><rect class="cls-22" x="296.94" y="153.44" width="0.01" height="4.86" transform="translate(20.57 345.84) rotate(-62.2)"/><rect class="cls-23" x="296.94" y="153.44" width="0.01" height="4.86" transform="translate(20.57 345.84) rotate(-62.2)"/><polygon class="cls-22" points="294.8 154.73 294.79 154.75 294.24 154.66 294.24 154.64 294.8 154.73"/><polygon class="cls-23" points="294.8 154.73 294.79 154.75 294.24 154.66 294.24 154.64 294.8 154.73"/><rect class="cls-22" x="293.58" y="153.54" width="2.49" height="0.01" transform="translate(21.37 342.55) rotate(-62.16)"/><rect class="cls-23" x="293.58" y="153.54" width="2.49" height="0.01" transform="translate(21.37 342.55) rotate(-62.16)"/><rect class="cls-22" x="293.97" y="150.28" width="0.01" height="2.82" transform="translate(22.7 341.01) rotate(-62.2)"/><rect class="cls-23" x="293.97" y="150.28" width="0.01" height="2.82" transform="translate(22.7 341.01) rotate(-62.2)"/><rect class="cls-22" x="293.4" y="153.44" width="2.49" height="0.01" transform="matrix(0.47, -0.88, 0.88, 0.47, 21.36, 342.34)"/><rect class="cls-23" x="293.4" y="153.44" width="2.49" height="0.01" transform="matrix(0.47, -0.88, 0.88, 0.47, 21.36, 342.34)"/><rect class="cls-22" x="291.44" y="150.21" width="0.01" height="5.92" transform="translate(20.03 339.55) rotate(-62.2)"/><rect class="cls-23" x="291.44" y="150.21" width="0.01" height="5.92" transform="translate(20.03 339.55) rotate(-62.2)"/><rect class="cls-22" x="283.34" y="160.36" width="1.92" height="0.01" transform="matrix(0.47, -0.88, 0.88, 0.47, 9.74, 336.88)"/><rect class="cls-23" x="283.34" y="160.36" width="1.92" height="0.01" transform="matrix(0.47, -0.88, 0.88, 0.47, 9.74, 336.88)"/><rect class="cls-22" x="291.23" y="148.84" width="0.01" height="2.82" transform="translate(22.48 337.76) rotate(-62.19)"/><rect class="cls-23" x="291.23" y="148.84" width="0.01" height="2.82" transform="translate(22.48 337.76) rotate(-62.19)"/><rect class="cls-22" x="287.98" y="150.59" width="2.49" height="0.01" transform="matrix(0.47, -0.88, 0.88, 0.47, 21, 336.02)"/><rect class="cls-23" x="287.98" y="150.59" width="2.49" height="0.01" transform="matrix(0.47, -0.88, 0.88, 0.47, 21, 336.02)"/><polygon class="cls-22" points="288.26 151.29 288.65 151.69 288.64 151.7 288.25 151.3 288.26 151.29"/><polygon class="cls-23" points="288.26 151.29 288.65 151.69 288.64 151.7 288.25 151.3 288.26 151.29"/><rect class="cls-22" x="286.1" y="147.73" width="0.01" height="4.86" transform="translate(19.84 333.21) rotate(-62.2)"/><rect class="cls-23" x="286.1" y="147.73" width="0.01" height="4.86" transform="translate(19.84 333.21) rotate(-62.2)"/><polygon class="cls-22" points="287.63 148.38 288.15 148.61 288.14 148.62 287.62 148.39 287.03 148.2 286.46 148.14 285.9 148.16 285.33 148.27 284.83 148.44 284.36 148.72 283.96 149.03 283.96 149.02 284.35 148.71 284.82 148.43 285.33 148.25 285.9 148.15 286.46 148.13 287.03 148.18 287.63 148.38"/><polygon class="cls-23" points="287.63 148.38 288.15 148.61 288.14 148.62 287.62 148.39 287.03 148.2 286.46 148.14 285.9 148.16 285.33 148.27 284.83 148.44 284.36 148.72 283.96 149.03 283.96 149.02 284.35 148.71 284.82 148.43 285.33 148.25 285.9 148.15 286.46 148.13 287.03 148.18 287.63 148.38"/><rect class="cls-22" x="288.97" y="148.12" width="0.01" height="1.88" transform="translate(22.33 335.13) rotate(-62.19)"/><rect class="cls-23" x="288.97" y="148.12" width="0.01" height="1.88" transform="translate(22.33 335.13) rotate(-62.19)"/><rect class="cls-22" x="279.85" y="155.03" width="1.6" height="0.01" transform="translate(12.5 330.81) rotate(-62.16)"/><rect class="cls-23" x="279.85" y="155.03" width="1.6" height="0.01" transform="translate(12.5 330.81) rotate(-62.16)"/><rect class="cls-22" x="283.31" y="149.44" width="0.68" height="0.01" transform="translate(-0.66 297.64) rotate(-55.31)"/><rect class="cls-23" x="283.31" y="149.44" width="0.68" height="0.01" transform="translate(-0.66 297.64) rotate(-55.31)"/><rect class="cls-22" x="285.98" y="147.87" width="0.01" height="4.86" transform="translate(19.67 333.21) rotate(-62.21)"/><rect class="cls-23" x="285.98" y="147.87" width="0.01" height="4.86" transform="translate(19.67 333.21) rotate(-62.21)"/><polygon class="cls-22" points="288.14 151.43 288.57 151.85 288.56 151.86 288.13 151.44 288.14 151.43"/><polygon class="cls-23" points="288.14 151.43 288.57 151.85 288.56 151.86 288.13 151.44 288.14 151.43"/><rect class="cls-22" x="286.63" y="153.02" width="2.64" height="0.01" transform="translate(18.17 336.19) rotate(-62.16)"/><rect class="cls-23" x="286.63" y="153.02" width="2.64" height="0.01" transform="translate(18.17 336.19) rotate(-62.16)"/><rect class="cls-22" x="284.89" y="150.15" width="0.01" height="5.51" transform="translate(16.79 333.63) rotate(-62.21)"/><rect class="cls-23" x="284.89" y="150.15" width="0.01" height="5.51" transform="translate(16.79 333.63) rotate(-62.21)"/><rect class="cls-22" x="282.09" y="151" width="1.39" height="0.01" transform="translate(17.2 330.54) rotate(-62.16)"/><rect class="cls-23" x="282.09" y="151" width="1.39" height="0.01" transform="translate(17.2 330.54) rotate(-62.16)"/><rect class="cls-22" x="280.52" y="152.89" width="2.53" height="0.01" transform="translate(15 330.67) rotate(-62.16)"/><rect class="cls-23" x="280.52" y="152.89" width="2.53" height="0.01" transform="translate(15 330.67) rotate(-62.16)"/><rect class="cls-22" x="284.8" y="150.3" width="0.01" height="5.51" transform="translate(16.6 333.64) rotate(-62.21)"/><rect class="cls-23" x="284.8" y="150.3" width="0.01" height="5.51" transform="translate(16.6 333.64) rotate(-62.21)"/><rect class="cls-22" x="285.26" y="155.54" width="2.71" height="0.01" transform="matrix(0.47, -0.88, 0.88, 0.47, 15.23, 336.35)"/><rect class="cls-23" x="285.26" y="155.54" width="2.71" height="0.01" transform="matrix(0.47, -0.88, 0.88, 0.47, 15.23, 336.35)"/><rect class="cls-22" x="283.54" y="152.7" width="0.01" height="5.51" transform="translate(13.81 333.8) rotate(-62.21)"/><rect class="cls-23" x="283.54" y="152.7" width="0.01" height="5.51" transform="translate(13.81 333.8) rotate(-62.21)"/><rect class="cls-22" x="279.98" y="154.95" width="1.43" height="0.01" transform="translate(12.59 330.81) rotate(-62.16)"/><rect class="cls-23" x="279.98" y="154.95" width="1.43" height="0.01" transform="translate(12.59 330.81) rotate(-62.16)"/><rect class="cls-22" x="283.46" y="152.86" width="0.01" height="5.51" transform="translate(13.61 333.79) rotate(-62.2)"/><rect class="cls-23" x="283.46" y="152.86" width="0.01" height="5.51" transform="translate(13.61 333.79) rotate(-62.2)"/><rect class="cls-22" x="284.68" y="157.63" width="1.67" height="0.01" transform="matrix(0.47, -0.88, 0.88, 0.47, 12.79, 336.5)"/><rect class="cls-23" x="284.68" y="157.63" width="1.67" height="0.01" transform="matrix(0.47, -0.88, 0.88, 0.47, 12.79, 336.5)"/><rect class="cls-22" x="285.21" y="158.32" width="0.01" height="0.2" transform="translate(11.93 336.65) rotate(-62.16)"/><rect class="cls-23" x="285.21" y="158.32" width="0.01" height="0.2" transform="translate(11.93 336.65) rotate(-62.16)"/><rect class="cls-22" x="283.35" y="155.24" width="7.3" height="0.01" transform="translate(15.7 336.54) rotate(-62.16)"/><rect class="cls-23" x="283.35" y="155.24" width="7.3" height="0.01" transform="translate(15.7 336.54) rotate(-62.16)"/><polygon class="cls-22" points="288.71 152.01 288.95 152.26 288.94 152.26 288.7 152.02 288.71 152.01"/><polygon class="cls-23" points="288.71 152.01 288.95 152.26 288.94 152.26 288.7 152.02 288.71 152.01"/><rect class="cls-22" x="291.27" y="150.86" width="0.01" height="5.27" transform="translate(19.66 339.57) rotate(-62.2)"/><rect class="cls-23" x="291.27" y="150.86" width="0.01" height="5.27" transform="translate(19.66 339.57) rotate(-62.2)"/><polygon class="cls-22" points="293.95 154.77 293.94 154.78 293.61 154.72 293.61 154.71 293.95 154.77"/><polygon class="cls-23" points="293.95 154.77 293.94 154.78 293.61 154.72 293.61 154.71 293.95 154.77"/><polygon class="cls-22" points="289.87 161.8 290.11 162.05 290.1 162.06 289.86 161.81 289.87 161.8"/><polygon class="cls-23" points="289.87 161.8 290.11 162.05 290.1 162.06 289.86 161.81 289.87 161.8"/><rect class="cls-22" x="287.53" y="157.95" width="0.01" height="5.27" transform="translate(11.41 340.08) rotate(-62.21)"/><rect class="cls-23" x="287.53" y="157.95" width="0.01" height="5.27" transform="translate(11.41 340.08) rotate(-62.21)"/><polygon class="cls-22" points="285.21 159.34 285.21 159.36 284.07 159.16 284.07 159.15 285.21 159.34"/><polygon class="cls-23" points="285.21 159.34 285.21 159.36 284.07 159.16 284.07 159.15 285.21 159.34"/><rect class="cls-22" x="282" y="155.74" width="0.01" height="4.65" transform="translate(10.66 333.81) rotate(-62.2)"/><rect class="cls-23" x="282" y="155.74" width="0.01" height="4.65" transform="translate(10.66 333.81) rotate(-62.2)"/><polygon class="cls-22" points="280.27 155.74 280.29 155.75 280.12 156.15 280.01 156.53 279.96 156.98 279.95 156.98 280 156.53 280.11 156.14 280.27 155.74"/><polygon class="cls-23" points="280.27 155.74 280.29 155.75 280.12 156.15 280.01 156.53 279.96 156.98 279.95 156.98 280 156.53 280.11 156.14 280.27 155.74"/><rect class="cls-22" x="290.1" y="163.57" width="0.01" height="1.88" transform="translate(9.31 344.45) rotate(-62.21)"/><rect class="cls-23" x="290.1" y="163.57" width="0.01" height="1.88" transform="translate(9.31 344.45) rotate(-62.21)"/><polygon class="cls-22" points="279.95 157.18 280.04 157.71 280.2 158.19 280.43 158.72 280.74 159.16 281.13 159.57 281.53 159.94 282.02 160.24 282.01 160.25 281.52 159.95 281.12 159.58 280.73 159.17 280.42 158.72 280.18 158.2 280.02 157.71 279.93 157.18 279.95 157.18"/><polygon class="cls-23" points="279.95 157.18 280.04 157.71 280.2 158.19 280.43 158.72 280.74 159.16 281.13 159.57 281.53 159.94 282.02 160.24 282.01 160.25 281.52 159.95 281.12 159.58 280.73 159.17 280.42 158.72 280.18 158.2 280.02 157.71 279.93 157.18 279.95 157.18"/><rect class="cls-22" x="281.98" y="155.95" width="0.01" height="4.61" transform="translate(10.5 333.92) rotate(-62.21)"/><rect class="cls-23" x="281.98" y="155.95" width="0.01" height="4.61" transform="translate(10.5 333.92) rotate(-62.21)"/><polygon class="cls-22" points="284.57 159.41 284.57 159.43 284.02 159.34 284.02 159.32 284.57 159.41"/><polygon class="cls-23" points="284.57 159.41 284.57 159.43 284.02 159.34 284.02 159.32 284.57 159.41"/><rect class="cls-22" x="283.16" y="160.26" width="1.92" height="0.01" transform="translate(9.72 336.67) rotate(-62.16)"/><rect class="cls-23" x="283.16" y="160.26" width="1.92" height="0.01" transform="translate(9.72 336.67) rotate(-62.16)"/><rect class="cls-22" x="281.89" y="150.67" width="2.14" height="0.01" transform="translate(17.59 330.52) rotate(-62.16)"/><rect class="cls-23" x="281.89" y="150.67" width="2.14" height="0.01" transform="translate(17.59 330.52) rotate(-62.16)"/><rect class="cls-22" x="280.39" y="152.97" width="2.71" height="0.01" transform="translate(14.91 330.67) rotate(-62.16)"/><rect class="cls-23" x="280.39" y="152.97" width="2.71" height="0.01" transform="translate(14.91 330.67) rotate(-62.16)"/><rect class="cls-22" x="295.74" y="161.06" width="2.71" height="0.01" transform="matrix(0.47, -0.88, 0.88, 0.47, 15.93, 348.56)"/><rect class="cls-23" x="295.74" y="161.06" width="2.71" height="0.01" transform="matrix(0.47, -0.88, 0.88, 0.47, 15.93, 348.56)"/><rect class="cls-22" x="295.2" y="163.12" width="1.6" height="0.01" transform="matrix(0.47, -0.88, 0.88, 0.47, 13.53, 348.7)"/><rect class="cls-23" x="295.2" y="163.12" width="1.6" height="0.01" transform="matrix(0.47, -0.88, 0.88, 0.47, 13.53, 348.7)"/><rect class="cls-22" x="287.91" y="158.41" width="8.23" height="0.01" transform="translate(15.58 342.67) rotate(-62.16)"/><rect class="cls-23" x="287.91" y="158.41" width="8.23" height="0.01" transform="translate(15.58 342.67) rotate(-62.16)"/><rect class="cls-22" x="288.16" y="150.68" width="2.49" height="0.01" transform="matrix(0.47, -0.88, 0.88, 0.47, 21.01, 336.23)"/><rect class="cls-23" x="288.16" y="150.68" width="2.49" height="0.01" transform="matrix(0.47, -0.88, 0.88, 0.47, 21.01, 336.23)"/><rect class="cls-22" x="287.37" y="157.93" width="0.01" height="5.92" transform="translate(11.03 340.07) rotate(-62.2)"/><rect class="cls-23" x="287.37" y="157.93" width="0.01" height="5.92" transform="translate(11.03 340.07) rotate(-62.2)"/><rect class="cls-22" x="288.58" y="163.12" width="1.92" height="0.01" transform="translate(10.09 342.98) rotate(-62.16)"/><rect class="cls-23" x="288.58" y="163.12" width="1.92" height="0.01" transform="translate(10.09 342.98) rotate(-62.16)"/><rect class="cls-22" x="292.6" y="148.01" width="0.01" height="5.92" transform="translate(22.6 339.4) rotate(-62.2)"/><rect class="cls-23" x="292.6" y="148.01" width="0.01" height="5.92" transform="translate(22.6 339.4) rotate(-62.2)"/><polygon class="cls-22" points="295.41 152.44 295.66 152.57 295.65 152.58 295.4 152.45 295.41 152.44"/><polygon class="cls-23" points="295.41 152.44 295.66 152.57 295.65 152.58 295.4 152.45 295.41 152.44"/><rect class="cls-22" x="286.47" y="159.64" width="0.01" height="5.92" transform="translate(9.05 340.19) rotate(-62.2)"/><rect class="cls-23" x="286.47" y="159.64" width="0.01" height="5.92" transform="translate(9.05 340.19) rotate(-62.2)"/><rect class="cls-22" x="282.84" y="159.74" width="0.01" height="1.88" transform="translate(8.78 335.91) rotate(-62.19)"/><rect class="cls-23" x="282.84" y="159.74" width="0.01" height="1.88" transform="translate(8.78 335.91) rotate(-62.19)"/><rect class="cls-22" x="286.37" y="157.74" width="0.01" height="10.08" transform="translate(8.83 340.21) rotate(-62.2)"/><rect class="cls-23" x="286.37" y="157.74" width="0.01" height="10.08" transform="translate(8.83 340.21) rotate(-62.2)"/><polygon class="cls-22" points="295.88 163.97 295.89 163.97 295.6 164.43 295.22 164.79 294.77 165.12 294.3 165.4 293.76 165.55 293.16 165.64 292.59 165.66 291.99 165.59 291.39 165.4 290.83 165.14 290.84 165.13 291.4 165.38 291.99 165.57 292.59 165.65 293.16 165.63 293.75 165.54 294.3 165.38 294.77 165.11 295.21 164.78 295.59 164.42 295.88 163.97"/><polygon class="cls-23" points="295.88 163.97 295.89 163.97 295.6 164.43 295.22 164.79 294.77 165.12 294.3 165.4 293.76 165.55 293.16 165.64 292.59 165.66 291.99 165.59 291.39 165.4 290.83 165.14 290.84 165.13 291.4 165.38 291.99 165.57 292.59 165.65 293.16 165.63 293.75 165.54 294.3 165.38 294.77 165.11 295.21 164.78 295.59 164.42 295.88 163.97"/><rect class="cls-22" x="294.07" y="160.95" width="6.8" height="0.01" transform="matrix(0.47, -0.88, 0.88, 0.47, 16.22, 348.84)"/><rect class="cls-23" x="294.07" y="160.95" width="6.8" height="0.01" transform="matrix(0.47, -0.88, 0.88, 0.47, 16.22, 348.84)"/><polygon class="cls-22" points="297.19 153.09 297.71 153.41 298.19 153.82 298.61 154.25 298.91 154.73 299.18 155.27 299.36 155.81 299.39 156.35 299.38 156.91 299.27 157.46 299.06 157.95 299.05 157.95 299.26 157.46 299.37 156.91 299.38 156.35 299.34 155.81 299.17 155.28 298.9 154.73 298.6 154.25 298.18 153.83 297.7 153.42 297.18 153.1 297.19 153.09"/><polygon class="cls-23" points="297.19 153.09 297.71 153.41 298.19 153.82 298.61 154.25 298.91 154.73 299.18 155.27 299.36 155.81 299.39 156.35 299.38 156.91 299.27 157.46 299.06 157.95 299.05 157.95 299.26 157.46 299.37 156.91 299.38 156.35 299.34 155.81 299.17 155.28 298.9 154.73 298.6 154.25 298.18 153.83 297.7 153.42 297.18 153.1 297.19 153.09"/><rect class="cls-22" x="292.72" y="145.71" width="0.01" height="10.08" transform="translate(22.87 339.41) rotate(-62.21)"/><rect class="cls-23" x="292.72" y="145.71" width="0.01" height="10.08" transform="translate(22.87 339.41) rotate(-62.21)"/><polygon class="cls-22" points="287.71 148.14 288.26 148.39 288.26 148.4 287.7 148.15 287.1 147.99 286.54 147.9 285.94 147.9 285.34 147.99 284.84 148.17 284.33 148.42 283.88 148.75 283.53 149.16 283.21 149.6 283.19 149.59 283.52 149.16 283.88 148.74 284.33 148.41 284.83 148.15 285.34 147.98 285.94 147.89 286.54 147.89 287.1 147.98 287.71 148.14"/><polygon class="cls-23" points="287.71 148.14 288.26 148.39 288.26 148.4 287.7 148.15 287.1 147.99 286.54 147.9 285.94 147.9 285.34 147.99 284.84 148.17 284.33 148.42 283.88 148.75 283.53 149.16 283.21 149.6 283.19 149.59 283.52 149.16 283.88 148.74 284.33 148.41 284.83 148.15 285.34 147.98 285.94 147.89 286.54 147.89 287.1 147.98 287.71 148.14"/><rect class="cls-22" x="278.21" y="152.6" width="6.8" height="0.01" transform="matrix(0.47, -0.88, 0.88, 0.47, 15.16, 330.36)"/><rect class="cls-23" x="278.21" y="152.6" width="6.8" height="0.01" transform="matrix(0.47, -0.88, 0.88, 0.47, 15.16, 330.36)"/><polygon class="cls-22" points="280.04 155.62 279.86 156.13 279.73 156.62 279.72 157.18 279.79 157.74 279.93 158.26 280.2 158.8 280.54 159.3 280.9 159.73 281.4 160.11 281.92 160.43 281.91 160.44 281.39 160.12 280.9 159.74 280.52 159.31 280.19 158.81 279.92 158.26 279.78 157.74 279.7 157.18 279.72 156.62 279.85 156.12 280.02 155.61 280.04 155.62"/><polygon class="cls-23" points="280.04 155.62 279.86 156.13 279.73 156.62 279.72 157.18 279.79 157.74 279.93 158.26 280.2 158.8 280.54 159.3 280.9 159.73 281.4 160.11 281.92 160.43 281.91 160.44 281.39 160.12 280.9 159.74 280.52 159.31 280.19 158.81 279.92 158.26 279.78 157.74 279.7 157.18 279.72 156.62 279.85 156.12 280.02 155.61 280.04 155.62"/><rect class="cls-22" x="286.33" y="162.73" width="0.04" height="0.04" transform="translate(8.72 339.96) rotate(-62.16)"/><rect class="cls-23" x="286.33" y="162.73" width="0.04" height="0.04" transform="translate(8.72 339.96) rotate(-62.16)"/><path class="cls-22" d="M291.82,160.54l2.4,1.26-.94,1.77-2.39-1.26Zm2.38,1.26-2.37-1.25-.92,1.76,2.37,1.25Z"/><path class="cls-23" d="M291.82,160.54l2.4,1.26-.94,1.77-2.39-1.26Zm2.38,1.26-2.37-1.25-.92,1.76,2.37,1.25Z"/><path class="cls-22" d="M293.22,157.89l2.39,1.26-.93,1.78-2.4-1.27Zm2.38,1.27-2.38-1.25-.92,1.75,2.37,1.25Z"/><path class="cls-23" d="M293.22,157.89l2.39,1.26-.93,1.78-2.4-1.27Zm2.38,1.27-2.38-1.25-.92,1.75,2.37,1.25Z"/><path class="cls-22" d="M294.56,155.34l2.4,1.26-.94,1.77-2.39-1.26Zm2.38,1.26-2.37-1.25-.92,1.76,2.37,1.25Z"/><path class="cls-23" d="M294.56,155.34l2.4,1.26-.94,1.77-2.39-1.26Zm2.38,1.26-2.37-1.25-.92,1.76,2.37,1.25Z"/><path class="cls-22" d="M282.76,155.76l2.39,1.26-.93,1.78-2.4-1.27Zm2.38,1.27-2.37-1.25-.93,1.75,2.37,1.25Z"/><path class="cls-23" d="M282.76,155.76l2.39,1.26-.93,1.78-2.4-1.27Zm2.38,1.27-2.37-1.25-.93,1.75,2.37,1.25Z"/><path class="cls-22" d="M284.16,153.11l2.39,1.26-.94,1.78-2.39-1.26Zm2.37,1.27-2.37-1.25-.92,1.75,2.37,1.25Z"/><path class="cls-23" d="M284.16,153.11l2.39,1.26-.94,1.78-2.39-1.26Zm2.37,1.27-2.37-1.25-.92,1.75,2.37,1.25Z"/><path class="cls-22" d="M285.53,150.5l2.4,1.26-.94,1.77-2.39-1.26Zm2.38,1.26-2.37-1.25-.92,1.76,2.37,1.25Z"/><path class="cls-23" d="M285.53,150.5l2.4,1.26-.94,1.77-2.39-1.26Zm2.38,1.26-2.37-1.25-.92,1.76,2.37,1.25Z"/></g></g></g></g><g id="hand"><path class="cls-24" d="M363,271.48c-.34-2-.67-3.93-1-5.88-.17-1-.33-2-.49-2.93-1.31-7.75-2.5-15.24-3.43-21.86-.11-.83-.22-1.64-.33-2.44q-.35-2.42-.6-4.62c-.09-.73-.17-1.44-.26-2.14h0c-.08-.69-.15-1.37-.22-2h0c-.07-.66-.13-1.3-.19-1.92,0-.32-.06-.62-.09-.92-.05-.6-.1-1.18-.13-1.73,0-.28-.05-.56-.06-.82,0-.54-.07-1-.09-1.54-.05-1.11-.09-2.26-.11-3.43-.12-5.45.05-11.41.32-17.54.07-1.62.16-3.25.24-4.89s.17-3.28.26-4.93q.18-3.26.35-6.5c.6-11.29,1-22.34.3-31.37-.1-1.25-.23-2.46-.38-3.64h0c-.06-.48-.13-1-.2-1.44-.22-1.42-.48-2.77-.78-4a6,6,0,0,0-.41-1.09c-.06-.14-.13-.28-.21-.43s-.09-.17-.14-.26-.2-.36-.32-.55-.11-.19-.18-.28-.17-.27-.25-.41-.36-.55-.57-.83a111.57,111.57,0,0,0-9.65-11.3l-1.15-1.23L342,127.24l-1.2-1.24c-.81-.83-1.63-1.66-2.45-2.48l-1.23-1.24-.62-.62-.61-.61-.62-.61c-.4-.41-.82-.81-1.23-1.21-.7-.7-1.41-1.38-2.1-2.06l-2.07-2c-1-.93-1.89-1.83-2.8-2.69-.53-.52-1.05-1-1.56-1.49l-.3-.28-.14-.13a1.79,1.79,0,0,1-.14-.13h0l-.55-.52c-.38-.36-.73-.68-1.07-1V99.85a8.3,8.3,0,0,0-4.44-6.76,14.47,14.47,0,0,0-6.09-1.76c-.1,0-.2,0-.3,0H312c-2.66-.08-5.4.73-7.76,4.41-.18.28-.36.58-.53.9a21.92,21.92,0,0,0-1.28,2.73c-.07.17-.13.34-.2.52-.22.57-.42,1.14-.61,1.7-.26.78-.5,1.54-.72,2.3l-.12.42c-.18.62-.34,1.23-.49,1.83-.18.75-.35,1.48-.5,2.21s-.29,1.46-.41,2.17-.18,1.23-.26,1.84c-.07.45-.12.91-.17,1.36-.14,1.35-.24,2.7-.3,4,0,.36,0,.71,0,1.06,0,.17,0,.33,0,.49a1.41,1.41,0,0,0,0,.2c0,.32,0,.63,0,1,0,.14,0,.28,0,.41a1.21,1.21,0,0,0,0,.19c0,.4,0,.81,0,1.21,0,.17,0,.33,0,.5s0,.21,0,.31,0,.2,0,.3q0,1,.06,1.92a.08.08,0,0,0,0,.07c0,.65.05,1.3.08,2v0c0,.66.06,1.33.1,2,0,.38.05.78.07,1.16s0,.46,0,.7,0,.43,0,.64c0,.05,0,.09,0,.15a1.7,1.7,0,0,0,0,.22c0,.31,0,.62.05.93s.06.83.08,1.26v.2s0,.08,0,.11c.17,2.93.3,5.94.3,9.08v.39c0,.14,0,.27,0,.4,0,.76-.05,1.58-.12,2.47a2,2,0,0,1,0,.25c0,.18,0,.37-.05.56s0,.3,0,.45q0,.56-.09,1.14c0,.33-.06.68-.1,1,0,.56-.11,1.15-.17,1.75,0,.4-.08.81-.13,1.22s-.07.66-.11,1a2.48,2.48,0,0,1,0,.27c0,.38-.08.77-.12,1.16,0,.12,0,.24,0,.37s0,.43-.07.65-.07.69-.12,1a.62.62,0,0,1,0,.13c0,.32-.07.65-.1,1-.09.78-.18,1.59-.26,2.41,0,.23-.06.44-.07.67-.45,4.21-.88,8.83-1.21,13.68-.27,4-.45,8.07-.49,12.25,0,1.61,0,3.22,0,4.84,0,1,.06,2,.1,3.07s.1,2.12.16,3.19c.23,3.48.6,7,1.15,10.43,1.73,11.07,5.3,21.7,11.91,30.3,0,0,.05.66.15,1.87,0,.1,0,.2,0,.31s0,.41,0,.64,0,.6.06.91c.05.55.09,1.15.14,1.79s.09,1.34.14,2.09v.05c0,.39.06.79.09,1.21s.06.83.09,1.27v.05l0,.59.09,1.22c0,.21,0,.42,0,.63s0,.57.05.86a4.75,4.75,0,0,1,0,.54c0,.31,0,.63.08,1s0,.37,0,.57l.06,1.07c0,.36.05.72.07,1.09s.05.74.07,1.12,0,.76.07,1.14c0,1,.11,1.95.17,3,0,.78.1,1.58.13,2.39.12,2.1.24,4.28.35,6.51,0,.86.09,1.74.12,2.62s.09,1.88.14,2.84c.07,1.55.14,3.11.2,4.69l.09,2.38c.07,1.59.12,3.19.17,4.79,0,.79,0,1.59.08,2.39,0,.36,0,2.6.06,5.88,14.29-10.26,33.5-15.61,50.87-24.91C363.12,272.07,363.06,271.77,363,271.48Z"/><path class="cls-25" d="M324.4,109.92c.38.34.75.7,1.15,1.09l.13,22.89c.84,15.51,6.15,32.61,6.39,33.18-.28-.54-6.48-15.41-8.25-30l-.49-28.22Z"/><path class="cls-26" d="M321.5,99.74s.21,11.53-1.18,13.35-15.37.32-16.54-1.61,2.13-14.84,3.3-15.69S316.16,92.7,321.5,99.74Z"/><g id="fingers"><path class="cls-27" d="M295.6,188.61a176.6,176.6,0,0,0-2.8,18.59c-1.45,13.33-8.23,12.37-11.09,10.75a4.74,4.74,0,0,1-.72-.47l-.23-.21c-.07-.08-.14-.13-.19-.2a2,2,0,0,1-.17-.26c-2.17-3.69-.93-18.33,1.09-22.81h0a33.19,33.19,0,0,1,.91-8h0l1.56.9h0l4.6,2.67.35.18a6.31,6.31,0,0,0,1.07.4,5.68,5.68,0,0,0,2.59.08l.37-.08.35-.1a2.85,2.85,0,0,0,.31-.12s0,0,0,0a2.63,2.63,0,0,0,.35-.15,4.63,4.63,0,0,0,.65-.36h0l.29-.21.3-.24.26-.24Z"/><path class="cls-27" d="M278.28,183.61c-1.33,3.89-2.11,6.61-2.11,6.61-1.24,4-2.69,6.49-4.21,8-.19.18-.37.37-.57.53a7,7,0,0,1-1.15.8,5,5,0,0,1-.57.28,5.36,5.36,0,0,1-2.76.43,2.73,2.73,0,0,1-.4-.05,7.24,7.24,0,0,1-.92-.22l-.4-.16a5.08,5.08,0,0,1-.78-.37c-.23-.13-.45-.27-.65-.4l0,0a2.26,2.26,0,0,1-.31-.23l-.2-.15-.32-.29-.2-.23-.07-.07s0-.05,0-.06l-.06-.07a.08.08,0,0,0,0,0s0,0,0,0,0,0,0,0h0a.33.33,0,0,0,0-.06l-.06-.1a.43.43,0,0,0,0-.07c-1.55-3.22,1.56-15.22,4.3-20.72l1.3.75.38.22,8.4,4.85Z"/><path class="cls-27" d="M262.65,174.58a33.71,33.71,0,0,1-2.79,3.32c-.59.63-1.15,1.2-1.71,1.72a26.55,26.55,0,0,1-2.34,2,19.21,19.21,0,0,1-2.12,1.45,13.61,13.61,0,0,1-1.31.67,8.2,8.2,0,0,1-3.34.79,4.68,4.68,0,0,1-.76-.06h0a3.41,3.41,0,0,1-.68-.14l-.52-.16-.26-.12-.33-.15a3.27,3.27,0,0,1-.31-.17,5.19,5.19,0,0,1-.62-.42,2.31,2.31,0,0,1-.24-.2,1.5,1.5,0,0,1-.23-.2,3.71,3.71,0,0,1-.29-.27c-.08-.09-.16-.16-.22-.24a3.59,3.59,0,0,1-.32-.36,1.12,1.12,0,0,1-.11-.15,12.23,12.23,0,0,1-1.48-2.4,5.44,5.44,0,0,0-.26-.54c-.06-.17-.14-.33-.19-.46-.41-.9.48-1.56,1.57-3,1.54-2.08,3.93-5.19,6.44-8.09l1.77,1,8.92,5.16Z"/><path class="cls-25" d="M295.6,188.61a176.6,176.6,0,0,0-2.8,18.59c-1.45,13.33-8.23,12.37-11.09,10.75a4.74,4.74,0,0,1-.72-.47l-.23-.21c-.07-.08-.14-.13-.19-.2a2,2,0,0,1-.17-.26,2.36,2.36,0,0,0-.12-.28,8.31,8.31,0,0,0,1.07.48c3.21,1.17,8.72.65,10-11.25,0,0,.68-7.58,2.25-15.84,0,0,0,0,0,0a2.63,2.63,0,0,0,.35-.15,4.63,4.63,0,0,0,.65-.36h0l.29-.21.3-.24.26-.24Z"/><path class="cls-25" d="M278.28,183.61c-1.33,3.89-2.11,6.61-2.11,6.61-1.24,4-2.69,6.49-4.21,8-.19.18-.37.37-.57.53a7,7,0,0,1-1.15.8,5,5,0,0,1-.57.28,5.36,5.36,0,0,1-2.76.43,2.73,2.73,0,0,1-.4-.05,7.24,7.24,0,0,1-.92-.22l-.4-.16a5.08,5.08,0,0,1-.78-.37c-.23-.13-.45-.27-.65-.4l0,0a2.26,2.26,0,0,1-.31-.23l-.2-.15-.32-.29-.2-.23-.07-.07s0-.05,0-.06l-.06-.07-.08-.13h0a.33.33,0,0,0,0-.06l-.06-.1a7.16,7.16,0,0,0,1.16.66c3,1.39,8,1,11.25-9.52,0,0,.71-2.49,1.93-6.11Z"/><path class="cls-25" d="M262.65,174.58a33.71,33.71,0,0,1-2.79,3.32c-.59.63-1.15,1.2-1.71,1.72a26.55,26.55,0,0,1-2.34,2,19.21,19.21,0,0,1-2.12,1.45,11.65,11.65,0,0,1-1.31.67,8.2,8.2,0,0,1-3.34.79,4.68,4.68,0,0,1-.76-.06h0a3.41,3.41,0,0,1-.68-.14l-.52-.16-.26-.12-.33-.15a3.27,3.27,0,0,1-.31-.17,5.19,5.19,0,0,1-.62-.42,2.31,2.31,0,0,1-.24-.2,1.5,1.5,0,0,1-.23-.2,3.71,3.71,0,0,1-.29-.27c-.08-.09-.16-.16-.22-.24a3.59,3.59,0,0,1-.32-.36,1.12,1.12,0,0,1-.11-.15,6,6,0,0,0,.75.49c2.72,1.5,7,1.07,13.55-5.94a33.73,33.73,0,0,0,2.47-2.89Z"/></g><path class="cls-28" d="M325.59,117.43l.09,16.47c0,.57.07,1.13.1,1.7l4.88-8.44a5.89,5.89,0,0,0-2.16-8Z"/></g></svg>