<svg xmlns="http://www.w3.org/2000/svg" xmlns:xlink="http://www.w3.org/1999/xlink" width="1123" zoomAndPan="magnify" viewBox="0 0 841.92 595.499987" height="794" preserveAspectRatio="xMidYMid meet" version="1.0"><defs><clipPath id="644fc92948"><path d="M 123 0 L 718.089844 0 L 718.089844 594.570312 L 123 594.570312 Z M 123 0 " clip-rule="nonzero"/></clipPath><clipPath id="1325ab8cf1"><path d="M 169.09375 251.417969 L 303.167969 251.417969 C 315.867188 251.417969 327.160156 256.527344 335.492188 264.792969 C 343.824219 273.058594 348.867188 284.417969 348.867188 297.117188 C 348.867188 298.125 348.800781 299.132812 348.800781 300.210938 C 347.992188 312.105469 342.550781 322.453125 333.8125 330.316406 C 325.074219 338.179688 313.316406 342.882812 300.816406 342.882812 L 169.09375 342.882812 Z M 718.085938 511.902344 L 718.085938 82.46875 C 718.085938 59.753906 708.8125 38.921875 693.890625 24 C 678.972656 9.082031 658.207031 -0.191406 635.425781 -0.191406 L 205.992188 -0.191406 C 183.207031 -0.191406 162.441406 9.082031 147.523438 24 C 132.605469 38.921875 123.328125 59.753906 123.328125 82.46875 L 123.328125 182.804688 L 169.09375 182.804688 L 169.09375 82.46875 C 169.09375 72.1875 173.195312 63.113281 179.914062 56.394531 C 186.636719 49.671875 195.773438 45.574219 205.992188 45.574219 L 635.425781 45.574219 C 645.707031 45.574219 654.777344 49.671875 661.5 56.394531 C 668.21875 63.113281 672.320312 72.253906 672.320312 82.46875 L 672.320312 511.902344 C 672.320312 522.183594 668.21875 531.257812 661.5 537.976562 C 654.777344 544.699219 645.640625 548.796875 635.425781 548.796875 L 205.992188 548.796875 C 195.707031 548.796875 186.636719 544.699219 179.914062 537.976562 C 173.195312 531.257812 169.09375 522.117188 169.09375 511.902344 L 169.09375 388.71875 L 300.816406 388.71875 C 324.875 388.71875 347.320312 379.644531 364.253906 364.523438 C 381.191406 349.402344 392.882812 327.832031 394.429688 303.234375 C 394.566406 301.21875 394.632812 299.203125 394.632812 297.183594 C 394.632812 271.984375 384.351562 248.933594 367.816406 232.46875 C 351.285156 216.003906 328.300781 205.652344 303.101562 205.652344 L 123.328125 205.652344 L 123.328125 511.902344 C 123.328125 534.683594 132.605469 555.449219 147.523438 570.371094 C 162.441406 585.289062 183.207031 594.5625 205.992188 594.5625 L 635.425781 594.5625 C 658.207031 594.5625 678.972656 585.289062 693.890625 570.371094 C 708.8125 555.449219 718.085938 534.683594 718.085938 511.902344 " clip-rule="nonzero"/></clipPath><clipPath id="2074ef315b"><path d="M 283 277 L 323 277 L 323 317 L 283 317 Z M 283 277 " clip-rule="nonzero"/></clipPath><clipPath id="1d99097880"><path d="M 322.859375 297.183594 C 322.859375 286.296875 314.054688 277.496094 303.167969 277.496094 C 292.28125 277.496094 283.476562 286.296875 283.476562 297.183594 C 283.476562 308.074219 292.28125 316.875 303.167969 316.875 C 314.054688 316.875 322.859375 308.074219 322.859375 297.183594 " clip-rule="nonzero"/></clipPath></defs><g clip-path="url(#644fc92948)"><g clip-path="url(#1325ab8cf1)"><path fill="#45bfbb" d="M 89.726562 -33.792969 L 751.707031 -33.792969 L 751.707031 628.183594 L 89.726562 628.183594 Z M 89.726562 -33.792969 " fill-opacity="1" fill-rule="nonzero"/></g></g><g clip-path="url(#2074ef315b)"><g clip-path="url(#1d99097880)"><path fill="#45bfbb" d="M 89.726562 -33.792969 L 751.707031 -33.792969 L 751.707031 628.183594 L 89.726562 628.183594 Z M 89.726562 -33.792969 " fill-opacity="1" fill-rule="nonzero"/></g></g></svg>